<?xml version="1.0" encoding="utf-8"?>
<!-- Generator: Adobe Illustrator 27.9.0, SVG Export Plug-In . SVG Version: 6.00 Build 0)  -->
<svg version="1.1" id="Capa_1" xmlns="http://www.w3.org/2000/svg" xmlns:xlink="http://www.w3.org/1999/xlink" x="0px" y="0px"
	 viewBox="0 0 575.6 168.7" style="enable-background:new 0 0 575.6 168.7;" xml:space="preserve">
<style type="text/css">
	.st0{fill:#BE1D2D;}
</style>
<g>
	<g>
		<path class="st0" d="M248.5,71.5c-22.2,0-40.2,18.6-40.2,41.5s18,41.5,40.2,41.5c22.2,0,40.2-18.6,40.2-41.5
			S270.7,71.5,248.5,71.5z M248.5,144.5c-18.4,0-29.5-15.3-29.5-31.7v-0.1c0-15,10.3-31.2,29.2-31.2c19.7,0,29.1,17.8,29.1,31.7
			C277.3,126.9,267.9,144.5,248.5,144.5z"/>
		<path class="st0" d="M108.7,59.5v107h10.2V67.9h46.7v6.7h-40.1v35.4h40.1v6.7h-40.1v49.9H136v-40.8h29.6v40.8h10.5v-107H108.7z
			 M136,101.7V83.5h29.6v18.2H136z"/>
		<path class="st0" d="M519.5,71.5c-22.2,0-40.2,18.6-40.2,41.5s18,41.5,40.2,41.5c22.2,0,40.2-18.6,40.2-41.5
			S541.7,71.5,519.5,71.5z M519.5,144.5c-18.4,0-29.5-15.3-29.5-31.7v-0.1c0-15,10.3-31.2,29.2-31.2c19.7,0,29.1,17.8,29.1,31.7
			C548.3,126.9,538.9,144.5,519.5,144.5z"/>
		<path class="st0" d="M519.1,57.4c-15.7,0-30.7,6.2-41.2,17.2h-29.5v91.9h10.4v-83H471c-5.2,8.5-8.3,18.8-8.3,30.7v0.1
			c0,27.5,22.6,54.2,56.3,54.2c33.3,0,56.7-25.7,56.7-55.5C575.6,83.2,552,57.4,519.1,57.4z M519.5,161.2
			c-25.8,0-46.9-21.6-46.9-48.2c0-26.6,21-48.2,46.9-48.2c25.8,0,46.9,21.6,46.9,48.2C566.4,139.6,545.4,161.2,519.5,161.2z"/>
		<path class="st0" d="M346.9,119.2c6.7-0.5,22.2-3.7,22.2-22.2c0-21.3-20.9-22.9-27.3-22.9h-21.5v92.5h10.3v-83h10.1
			c3.8,0,8.1,1,11.1,2.9c3.6,2.3,6.4,6.8,6.4,12.4c0,5.9-2.7,11-6.1,13.2c-3.6,2.3-9.5,2.9-16.5,2.9h-4.5l27.9,51.6h10.4l-27.9-46.9
			L346.9,119.2z"/>
		<path class="st0" d="M383.7,87.9c-1.5-8.3-5.5-15.6-12.3-20.8c-5.9-4.6-16.3-7.7-33.1-7.7h-35v41.3c-5.5-24.3-26.8-43.3-55.2-43.3
			c-25.7,0-49.4,16.5-55.1,43.9V59.5h-10.2v107h10.2v-40.9c5.2,23.1,26,42.9,55,42.9c28.6,0,49.9-19,55.3-43.3v41.2h10.4V67.4h28.2
			c16.4,0,33.9,7.8,33.9,29.6c0,17.2-11.2,25.6-23.2,28.1l24.6,41.4h17.2v-107h-10.7V87.9z M248.5,161.2
			c-25.8,0-46.9-21.6-46.9-48.2c0-26.6,21-48.2,46.9-48.2c25.8,0,46.9,21.6,46.9,48.2C295.4,139.6,274.4,161.2,248.5,161.2z
			 M365.2,127.2c5.1-2.2,10.3-5.8,13.9-11.4c2-3.2,3.7-7,4.6-11.6V160L365.2,127.2z"/>
		<polygon class="st0" points="411,68 479.7,68 479.7,59.5 401,59.5 401,166.5 411,166.5 411,83.5 431.3,83.5 431.3,166.5 
			441.6,166.5 441.6,74.6 411,74.6 		"/>
	</g>
	<g>
		<g>
			<g>
				<path class="st0" d="M85.6,164.2c0.1,2.3,2.1,4.1,4.5,4c2.3-0.1,4.2-2.1,4-4.5c0,0-0.9-15.9-1.3-23.4l-0.2-3.5
					c-0.6-11.2-1.3-24-0.9-34c0.1-2.8,0.6-6.5,1.2-10.4c1.5-10.8,3-22-0.5-28.8c-5.3-10.5-16.2-8.9-22-7.5c-1.4-1.5-2.8-3.1-4.3-4.8
					c-7.5-8.5-15.8-9.6-24.7-3.3c-0.9,0.6-1.7,1.3-2.5,2.2c-8.2-0.9-14.7,3.8-17.9,9.3c-0.5,0.8-0.9,2.1-1.4,3.7
					c-3.5,0.5-6.8,2.6-9.2,6.2c-0.8,1.2-1.5,3.1-2.1,5.8c-3.9,4.2-6.3,8.6-7.7,14.1c-1.6,6.5-0.6,12.5,3.1,18.5
					c0.2,0.3,16.8,27.3,38.7,41.1c0,3,0,7.1-0.1,10.5l0,0.9c0,1.9,0,3.4,0,4.2c0,2.3,1.9,4.2,4.2,4.2c2.1,0,3.9-1.6,4.2-3.6
					c0.1-0.2,0.1-0.4,0.1-0.6c0-0.9,0-2.8,0-5c0-3.4,0.1-7.6,0.1-10.7c1.1,0.5,2.2,1,3.3,1.4c0.3,0.1,0.5,0.1,0.8,0.1
					c0.9,0,1.7-0.5,2-1.4c0.4-1.1-0.1-2.3-1.2-2.8c-23.6-9.2-44.5-42.5-44.7-42.8c-2.5-4-3.1-7.7-2.1-12c0.5-2.2,1.3-4.2,2.3-6
					c-0.2,4.6,0.3,9.2,2.1,11.7c0.4,0.6,1.1,0.9,1.7,0.9c0.4,0,0.9-0.1,1.3-0.4c1-0.7,1.2-2,0.5-3c-2-2.7-1.5-10.3-0.6-15.5
					c0.1-0.2,0.1-0.4,0.1-0.6c0-0.2,0.1-0.3,0.1-0.4c0.2-1.1,0.5-2,0.6-2.6c0.2-0.5,0.3-0.9,0.5-1.1c1.4-2.1,3-2.9,4.7-2.3
					c-0.9,6.4-1.2,13.9,0.8,16.6c0.4,0.6,1.1,0.9,1.8,0.9c0.4,0,0.9-0.1,1.2-0.4c1-0.7,1.2-2,0.5-3c-1.4-1.9-0.6-11.4,0.6-17.5l0,0
					c0.3-1.5,0.6-2.6,0.8-3.4c0.2-0.5,0.3-1,0.5-1.3c0.3-0.6,1.5-2.4,3.5-3.7c0,0,0.1,0,0.1-0.1c0.3-0.2,0.6-0.4,0.9-0.5
					c0.3-0.1,0.6-0.3,0.9-0.4c0.2-0.1,0.4-0.1,0.5-0.2c0.4-0.1,0.7-0.2,1.1-0.2c0.3,0,0.6-0.1,0.9-0.1c0.2,0,0.4,0,0.6,0
					c0.5,0,1.1,0.1,1.6,0.2c-1.4,3.3-2.2,6.8-2.7,9l-0.3,1.1c-0.9,3.7-0.5,6.9,1.4,11.8c0.3,0.8,1.1,1.4,2,1.4c0.3,0,0.5,0,0.8-0.1
					c1.1-0.4,1.7-1.7,1.2-2.8c-1.8-4.6-1.8-6.8-1.2-9.3l0.3-1.2c0.7-3.3,2.4-11,6.2-13.7c4.5-3.2,8.2-3.9,13.4,2
					c3.5,4,6.5,7.2,9.3,10c1.8,1.9,1.7,2.3,1.5,3.2c-0.6,1.9-2,5.5-3.3,7.3c-0.4,0.6-0.5,1.3-0.3,1.9c-0.2,0.2-0.3,0.3-0.5,0.5
					c-0.4,0.4-1.1,1.2-2.4,0.1c-0.7-0.6-2.2-1.9-4-3.6c0.6-1.5,1.3-4.3,1.6-6.2c0.6,0.3,1.2,0.6,1.8,0.8c0.2,0.1,0.4,0.1,0.5,0.1
					c0.8,0,1.5-0.5,1.7-1.3c0.3-1-0.2-2-1.2-2.3c-0.9-0.3-3.1-1.3-5-4.6c-0.5-0.9-1.6-1.2-2.5-0.7c-0.9,0.5-1.2,1.6-0.7,2.5
					c0.6,1.1,1.4,2,2.1,2.9c0,0,0,0,0,0.1c-0.2,1-0.8,4.1-1.4,6.1c-0.5-0.5-1-1-1.6-1.4c-0.7-0.7-1.9-0.6-2.6,0.1
					c-0.7,0.7-0.6,1.9,0.1,2.6c1.6,1.4,3.1,2.9,4.5,4.1c1.9,1.7,3.4,3.1,4.1,3.7c1.1,0.9,2.4,1.4,3.6,1.4c1.4,0,2.7-0.6,3.9-1.8
					c3.3-3.6,7-6.2,8.2-7c0.9-0.5,1.2-1.6,0.7-2.5c-0.5-0.9-1.6-1.2-2.5-0.7c-0.4,0.2-0.9,0.6-1.5,1c0.2-0.6,0.4-1.2,0.6-1.7
					c0.9-2.9-0.1-4.9-2.1-7c1.2-0.3,2.5-0.5,3.6-0.7c0.4,0,0.8-0.1,1.1-0.1c0.2,0,0.5,0,0.7,0c0.4,0,0.8,0,1.3,0.1
					c0.2,0,0.4,0,0.6,0.1c0.4,0.1,0.7,0.1,1,0.2c0.3,0.1,0.5,0.2,0.7,0.3c0.1,0,0.1,0.1,0.2,0.1c1.2,0.6,2.3,1.6,3.1,3.1
					c0.1,0.3,0.3,0.6,0.4,0.9c0,0,0,0,0,0c1.7,4.9,0.4,14.8-0.7,22.9c-0.6,4.1-1.1,8.1-1.2,11.2c-0.5,10.4,0.3,23.4,0.9,34.8
					l0.2,3.5C84.6,148.3,85.6,164.2,85.6,164.2z"/>
			</g>
			<g>
				<path class="st0" d="M75.7,6l4.3,13.8l7.9,4.3l-7.9,4.3l-4.3,13.8l-4.3-13.8l-7.9-4.3l7.9-4.3L75.7,6 M75.7,0
					c-2.6,0-5,1.7-5.8,4.2l-3.6,11.5l-5.8,3.2c-1.9,1.1-3.1,3.1-3.1,5.3c0,2.2,1.2,4.2,3.1,5.3l5.8,3.2L70,44.1
					c0.8,2.5,3.1,4.2,5.8,4.2l0,0c2.6,0,5-1.7,5.8-4.2l3.6-11.5l5.8-3.2c1.9-1.1,3.1-3.1,3.1-5.3c0-2.2-1.2-4.2-3.1-5.3l-5.8-3.2
					L81.5,4.2C80.7,1.7,78.4,0,75.7,0L75.7,0z"/>
			</g>
		</g>
	</g>
</g>
</svg>
